<?xml version="1.0" encoding="utf-8"?>
<!-- Generator: Adobe Illustrator 24.0.0, SVG Export Plug-In . SVG Version: 6.00 Build 0)  -->
<svg version="1.1" id="Layer_1" xmlns="http://www.w3.org/2000/svg" xmlns:xlink="http://www.w3.org/1999/xlink" x="0px" y="0px"
	 viewBox="0 0 48 48" style="enable-background:new 0 0 48 48;" xml:space="preserve">
<style type="text/css">
	.st0{fill:#CF142C;}
	.st1{fill:#FEFEFE;}
	.st2{fill:#01237D;}
</style>
<g>
	<path class="st0" d="M21.1,9.5c1.9,0,3.8,0,5.8,0c0,3.8,0,7.5,0,11.3c0,0.2,0.1,0.3,0.3,0.3c6.9,0,13.9,0,20.8,0c0,1.9,0,3.9,0,5.8
		c-6.9,0-13.9,0-20.8,0c-0.2,0-0.3,0.1-0.3,0.3c0,3.8,0,7.5,0,11.3c-1.9,0-3.8,0-5.8,0c0-3.8,0-7.5,0-11.3c0-0.2-0.1-0.3-0.3-0.3
		c-6.9,0-13.9,0-20.8,0c0-1.9,0-3.9,0-5.8c6.9,0,13.9,0,20.8,0c0.2,0,0.3-0.1,0.3-0.3C21.1,17,21.1,13.3,21.1,9.5z"/>
	<path class="st1" d="M21.1,9.5c0,3.8,0,7.5,0,11.3c0,0.2-0.1,0.3-0.3,0.3c-6.9,0-13.9,0-20.8,0c0-0.6,0-1.3,0-1.9
		c3.4,0,6.9,0,10.4,0c-0.1-0.1-0.2-0.1-0.2-0.1c-3.3-2-6.7-4-10-6c-0.1,0-0.1-0.1-0.2-0.1c0-1.1,0-2.2,0-3.2c0-0.2,0-0.2,0.2-0.2
		c1.8,0,3.6,0,5.4,0c0,0,0.1,0.1,0.1,0.1c4.1,2.5,8.2,5,12.4,7.4c0.4,0.2,0.7,0.4,1.1,0.7c0-2.8,0-5.5,0-8.2
		C19.8,9.5,20.5,9.5,21.1,9.5z"/>
	<path class="st1" d="M0,26.8c6.9,0,13.9,0,20.8,0c0.2,0,0.3,0.1,0.3,0.3c0,3.8,0,7.5,0,11.3c-0.6,0-1.3,0-1.9,0c0-2.7,0-5.4,0-8.2
		c-0.1,0.1-0.2,0.1-0.3,0.1c-3.1,1.9-6.2,3.7-9.3,5.6c-1.4,0.8-2.7,1.6-4.1,2.5c-1.8,0-3.6,0-5.4,0c-0.1,0-0.2,0-0.2-0.2
		c0-1.1,0-2.2,0-3.2c0.1,0,0.1,0,0.2-0.1c3.3-2,6.7-4,10-6c0.1,0,0.1-0.1,0.2-0.1c-3.5,0-6.9,0-10.3,0C0,28.1,0,27.5,0,26.8z"/>
	<path class="st1" d="M48,21.1c-6.9,0-13.9,0-20.8,0c-0.2,0-0.3-0.1-0.3-0.3c0-3.8,0-7.5,0-11.3c0.6,0,1.3,0,1.9,0
		c0,2.7,0,5.4,0,8.2c0.1,0,0.2-0.1,0.3-0.1c3.1-1.9,6.2-3.8,9.4-5.6c1.3-0.8,2.6-1.6,4-2.4c1.8,0,3.6,0,5.4,0c0.1,0,0.2,0,0.2,0.2
		c0,1.1,0,2.2,0,3.3c-0.1,0-0.1,0-0.2,0.1c-3.3,2-6.7,4-10,6c-0.1,0-0.1,0-0.2,0.1c3.4,0,6.9,0,10.3,0C48,19.8,48,20.4,48,21.1z"/>
	<path class="st1" d="M26.9,38.4c0-3.8,0-7.5,0-11.3c0-0.2,0.1-0.3,0.3-0.3c6.9,0,13.9,0,20.8,0c0,0.6,0,1.3,0,1.9
		c-3.4,0-6.9,0-10.4,0c0.1,0.1,0.1,0.1,0.2,0.1c3.4,2,6.7,4,10.1,6.1c0,0,0.1,0.1,0.1,0c0,1.1,0,2.2,0,3.3c0,0.1,0,0.2-0.2,0.2
		c-1.8,0-3.6,0-5.4,0c0,0,0,0-0.1-0.1c-4.2-2.5-8.5-5.1-12.7-7.6c-0.3-0.2-0.5-0.3-0.8-0.5c0,2.8,0,5.5,0,8.2
		C28.2,38.4,27.5,38.4,26.9,38.4z"/>
	<path class="st2" d="M42.4,9.5c-1.3,0.8-2.6,1.6-4,2.4c-3.1,1.9-6.2,3.8-9.4,5.6c-0.1,0-0.1,0.1-0.3,0.1c0-2.7,0-5.4,0-8.2
		C33.3,9.5,37.9,9.5,42.4,9.5z"/>
	<path class="st2" d="M28.8,38.4c0-2.7,0-5.4,0-8.2c0.3,0.2,0.5,0.3,0.8,0.5c4.2,2.5,8.5,5.1,12.7,7.6c0,0,0.1,0,0.1,0.1
		C37.9,38.4,33.3,38.4,28.8,38.4z"/>
	<path class="st2" d="M19.2,9.5c0,2.7,0,5.4,0,8.2c-0.4-0.2-0.8-0.5-1.1-0.7c-4.1-2.5-8.2-5-12.4-7.4c0,0-0.1-0.1-0.1-0.1
		C10.1,9.5,14.7,9.5,19.2,9.5z"/>
	<path class="st2" d="M5.6,38.4c1.4-0.8,2.7-1.6,4.1-2.5c3.1-1.9,6.2-3.7,9.3-5.6c0.1,0,0.1-0.1,0.3-0.1c0,2.7,0,5.5,0,8.2
		C14.7,38.4,10.1,38.4,5.6,38.4z"/>
	<path class="st2" d="M0,12.9c0.1,0,0.1,0,0.2,0.1c3.3,2,6.7,4,10,6c0.1,0,0.1,0.1,0.2,0.1c-3.5,0-6.9,0-10.4,0C0,17.1,0,15,0,12.9z
		"/>
	<path class="st2" d="M0,28.8c3.4,0,6.9,0,10.3,0c0,0.1-0.1,0.1-0.2,0.1c-3.3,2-6.7,4-10,6C0.1,34.9,0.1,35,0,35
		C0,32.9,0,30.8,0,28.8z"/>
	<path class="st2" d="M48,19.1c-3.4,0-6.9,0-10.3,0c0-0.1,0.1-0.1,0.2-0.1c3.3-2,6.7-4,10-6c0.1,0,0.1-0.1,0.2-0.1
		C48,15,48,17.1,48,19.1z"/>
	<path class="st2" d="M48,35c-0.1,0.1-0.1,0-0.1,0c-3.4-2-6.7-4-10.1-6.1c0,0-0.1,0-0.2-0.1c3.5,0,6.9,0,10.4,0
		C48,30.8,48,32.9,48,35z"/>
</g>
</svg>
